{
	"asset":{
		"generator":"Khronos glTF Blender I/O v4.5.47",
		"version":"2.0"
	},
	"extensionsUsed":[
		"KHR_materials_specular"
	],
	"scene":0,
	"scenes":[
		{
			"name":"Scene",
			"nodes":[
				0
			]
		}
	],
	"nodes":[
		{
			"mesh":0,
			"name":"guy_lowpoly_UVSP",
			"rotation":[
				0.7071068286895752,
				0,
				0,
				0.7071068286895752
			],
			"translation":[
				0,
				5.819999694824219,
				0
			]
		}
	],
	"materials":[
		{
			"alphaMode":"BLEND",
			"doubleSided":true,
			"emissiveTexture":{
				"index":0
			},
			"extensions":{
				"KHR_materials_specular":{
					"specularFactor":0
				}
			},
			"name":"DefaultMaterial",
			"normalTexture":{
				"index":1
			},
			"pbrMetallicRoughness":{
				"baseColorTexture":{
					"index":2
				},
				"metallicRoughnessTexture":{
					"index":3
				}
			}
		},
		{
			"doubleSided":true,
			"name":"Seaweed",
			"pbrMetallicRoughness":{
				"metallicFactor":0
			}
		}
	],
	"meshes":[
		{
			"name":"guy_lowpoly_UVSP",
			"primitives":[
				{
					"attributes":{
						"POSITION":0,
						"NORMAL":1,
						"TEXCOORD_0":2
					},
					"indices":3,
					"material":0
				},
				{
					"attributes":{
						"POSITION":4,
						"NORMAL":5,
						"TEXCOORD_0":6
					},
					"indices":7,
					"material":1
				}
			]
		}
	],
	"textures":[
		{
			"sampler":0,
			"source":0
		},
		{
			"sampler":0,
			"source":1
		},
		{
			"sampler":0,
			"source":2
		},
		{
			"sampler":0,
			"source":3
		}
	],
	"images":[
		{
			"mimeType":"image/png",
			"name":"DefaultMaterial_Emission",
			"uri":"DefaultMaterial_Emission.png"
		},
		{
			"mimeType":"image/png",
			"name":"DefaultMaterial_Normal",
			"uri":"DefaultMaterial_Normal.png"
		},
		{
			"mimeType":"image/png",
			"name":"DefaultMaterial_BaseColor-DefaultMaterial_Alpha",
			"uri":"DefaultMaterial_BaseColor-DefaultMaterial_Alpha.png"
		},
		{
			"mimeType":"image/png",
			"name":"DefaultMaterial_Metallic-DefaultMaterial_Roughness",
			"uri":"DefaultMaterial_Metallic-DefaultMaterial_Roughness.png"
		}
	],
	"accessors":[
		{
			"bufferView":0,
			"componentType":5126,
			"count":515471,
			"max":[
				2.439404010772705,
				2.8733606338500977,
				6.051459312438965
			],
			"min":[
				-2.4394044876098633,
				-1.9124261140823364,
				-4.642316818237305
			],
			"type":"VEC3"
		},
		{
			"bufferView":1,
			"componentType":5126,
			"count":515471,
			"type":"VEC3"
		},
		{
			"bufferView":2,
			"componentType":5126,
			"count":515471,
			"type":"VEC2"
		},
		{
			"bufferView":3,
			"componentType":5125,
			"count":2959104,
			"type":"SCALAR"
		},
		{
			"bufferView":4,
			"componentType":5126,
			"count":611848,
			"max":[
				1.0161213874816895,
				0.9420243501663208,
				-1.8409924507141113
			],
			"min":[
				-1.016121506690979,
				0.3729996979236603,
				-3.1794700622558594
			],
			"type":"VEC3"
		},
		{
			"bufferView":5,
			"componentType":5126,
			"count":611848,
			"type":"VEC3"
		},
		{
			"bufferView":6,
			"componentType":5126,
			"count":611848,
			"type":"VEC2"
		},
		{
			"bufferView":7,
			"componentType":5125,
			"count":3671040,
			"type":"SCALAR"
		}
	],
	"bufferViews":[
		{
			"buffer":0,
			"byteLength":6185652,
			"byteOffset":0,
			"target":34962
		},
		{
			"buffer":0,
			"byteLength":6185652,
			"byteOffset":6185652,
			"target":34962
		},
		{
			"buffer":0,
			"byteLength":4123768,
			"byteOffset":12371304,
			"target":34962
		},
		{
			"buffer":0,
			"byteLength":11836416,
			"byteOffset":16495072,
			"target":34963
		},
		{
			"buffer":0,
			"byteLength":7342176,
			"byteOffset":28331488,
			"target":34962
		},
		{
			"buffer":0,
			"byteLength":7342176,
			"byteOffset":35673664,
			"target":34962
		},
		{
			"buffer":0,
			"byteLength":4894784,
			"byteOffset":43015840,
			"target":34962
		},
		{
			"buffer":0,
			"byteLength":14684160,
			"byteOffset":47910624,
			"target":34963
		}
	],
	"samplers":[
		{
			"magFilter":9729,
			"minFilter":9987
		}
	],
	"buffers":[
		{
			"byteLength":62594784,
			"uri":"chibi11.bin"
		}
	]
}
